<svg xmlns="http://www.w3.org/2000/svg" width="900" height="290" style="font-family: -apple-system, BlinkMacSystemFont, 'Segoe UI', Helvetica, Arial, sans-serif;">
  <rect width="100%" height="100%" fill="#0d1117"/>
  <g>
    <line x1="40" y1="220.00" x2="860" y2="220.00" stroke="#30363d"/><text x="32" y="224.00" font-size="10" fill="#c9d1d9" text-anchor="end">0</text><line x1="40" y1="175.00" x2="860" y2="175.00" stroke="#30363d"/><text x="32" y="179.00" font-size="10" fill="#c9d1d9" text-anchor="end">1.2k</text><line x1="40" y1="130.00" x2="860" y2="130.00" stroke="#30363d"/><text x="32" y="134.00" font-size="10" fill="#c9d1d9" text-anchor="end">2.5k</text><line x1="40" y1="85.00" x2="860" y2="85.00" stroke="#30363d"/><text x="32" y="89.00" font-size="10" fill="#c9d1d9" text-anchor="end">3.8k</text><line x1="40" y1="40.00" x2="860" y2="40.00" stroke="#30363d"/><text x="32" y="44.00" font-size="10" fill="#c9d1d9" text-anchor="end">5k</text>
    <line x1="40.00" y1="40" x2="40.00" y2="220" stroke="#30363d" opacity="0.5"/><line x1="98.57" y1="40" x2="98.57" y2="220" stroke="#30363d" opacity="0.5"/><line x1="157.14" y1="40" x2="157.14" y2="220" stroke="#30363d" opacity="0.5"/><line x1="215.71" y1="40" x2="215.71" y2="220" stroke="#30363d" opacity="0.5"/><line x1="274.29" y1="40" x2="274.29" y2="220" stroke="#30363d" opacity="0.5"/><line x1="332.86" y1="40" x2="332.86" y2="220" stroke="#30363d" opacity="0.5"/><line x1="391.43" y1="40" x2="391.43" y2="220" stroke="#30363d" opacity="0.5"/><line x1="450.00" y1="40" x2="450.00" y2="220" stroke="#30363d" opacity="0.5"/><line x1="508.57" y1="40" x2="508.57" y2="220" stroke="#30363d" opacity="0.5"/><line x1="567.14" y1="40" x2="567.14" y2="220" stroke="#30363d" opacity="0.5"/><line x1="625.71" y1="40" x2="625.71" y2="220" stroke="#30363d" opacity="0.5"/><line x1="684.29" y1="40" x2="684.29" y2="220" stroke="#30363d" opacity="0.5"/><line x1="742.86" y1="40" x2="742.86" y2="220" stroke="#30363d" opacity="0.5"/><line x1="801.43" y1="40" x2="801.43" y2="220" stroke="#30363d" opacity="0.5"/><line x1="860.00" y1="40" x2="860.00" y2="220" stroke="#30363d" opacity="0.5"/>
    <line x1="40" y1="220" x2="860" y2="220" stroke="#30363d"/>
    <line x1="40" y1="40"   x2="40"   y2="220" stroke="#30363d"/>
    <path d="M 40.00 162.11 L 69.29 162.11 L 98.57 158.15 L 127.86 155.34 L 157.14 155.13 L 186.43 155.13 L 215.71 152.14 L 245.00 152.14 L 274.29 152.14 L 303.57 152.14 L 332.86 152.14 L 362.14 149.30 L 391.43 149.30 L 420.71 147.50 L 450.00 147.35 L 479.29 145.91 L 508.57 144.58 L 537.86 144.58 L 567.14 143.82 L 596.43 143.28 L 625.71 140.15 L 655.00 140.15 L 684.29 134.32 L 713.57 134.07 L 742.86 134.07 L 772.14 115.49 L 801.43 115.49 L 830.71 115.49 L 860.00 114.84" fill="none" stroke="#3fb950" stroke-width="2"/>
    <circle cx="860.00" cy="114.84" r="3" fill="#3fb950"/>
    <text x="40.00" y="235.00" font-size="9" fill="#c9d1d9" text-anchor="middle" transform="rotate(-45 40.00 235.00)">16.09.2026</text><text x="98.57" y="235.00" font-size="9" fill="#c9d1d9" text-anchor="middle" transform="rotate(-45 98.57 235.00)">16.09.2026</text><text x="157.14" y="235.00" font-size="9" fill="#c9d1d9" text-anchor="middle" transform="rotate(-45 157.14 235.00)">16.09.2026</text><text x="215.71" y="235.00" font-size="9" fill="#c9d1d9" text-anchor="middle" transform="rotate(-45 215.71 235.00)">16.09.2026</text><text x="274.29" y="235.00" font-size="9" fill="#c9d1d9" text-anchor="middle" transform="rotate(-45 274.29 235.00)">16.09.2026</text><text x="332.86" y="235.00" font-size="9" fill="#c9d1d9" text-anchor="middle" transform="rotate(-45 332.86 235.00)">16.09.2026</text><text x="391.43" y="235.00" font-size="9" fill="#c9d1d9" text-anchor="middle" transform="rotate(-45 391.43 235.00)">17.09.2026</text><text x="450.00" y="235.00" font-size="9" fill="#c9d1d9" text-anchor="middle" transform="rotate(-45 450.00 235.00)">18.09.2026</text><text x="508.57" y="235.00" font-size="9" fill="#c9d1d9" text-anchor="middle" transform="rotate(-45 508.57 235.00)">18.09.2026</text><text x="567.14" y="235.00" font-size="9" fill="#c9d1d9" text-anchor="middle" transform="rotate(-45 567.14 235.00)">19.09.2026</text><text x="625.71" y="235.00" font-size="9" fill="#c9d1d9" text-anchor="middle" transform="rotate(-45 625.71 235.00)">19.09.2026</text><text x="684.29" y="235.00" font-size="9" fill="#c9d1d9" text-anchor="middle" transform="rotate(-45 684.29 235.00)">21.09.2026</text><text x="742.86" y="235.00" font-size="9" fill="#c9d1d9" text-anchor="middle" transform="rotate(-45 742.86 235.00)">22.09.2026</text><text x="801.43" y="235.00" font-size="9" fill="#c9d1d9" text-anchor="middle" transform="rotate(-45 801.43 235.00)">22.09.2026</text><text x="860.00" y="235.00" font-size="9" fill="#c9d1d9" text-anchor="middle" transform="rotate(-45 860.00 235.00)">22.09.2026</text>
  </g>
</svg>